<?xml version="1.0" encoding="utf-8"?>
<!-- Generator: Adobe Adobe Illustrator 24.2.0, SVG Export Plug-In . SVG Version: 6.00 Build 0)  -->
<svg version="1.1" id="Layer_2" xmlns="http://www.w3.org/2000/svg" xmlns:xlink="http://www.w3.org/1999/xlink" x="0px" y="0px"
	 width="612px" height="612px" viewBox="0 0 612 612" style="enable-background:new 0 0 612 612;" xml:space="preserve">
<style type="text/css">
	.st0{fill:#FFFFFF;}
	.st1{fill:#18100F;}
	.st2{fill:none;stroke:#000000;stroke-width:20;stroke-miterlimit:10;}
</style>
<rect x="77.43" y="190.44" class="st1" width="18.5" height="224"/>
<rect x="521.43" y="190.28" class="st1" width="18.5" height="224"/>
<polygon class="st1" points="108.44,436.67 108.44,422.67 216.69,422.92 225.44,436.67 "/>
<polygon class="st1" points="508.94,436.35 508.94,422.35 408.09,422.6 399.94,436.35 "/>
<rect x="110.32" y="156.82" class="st1" width="105" height="17.5"/>
<rect x="402.44" y="156.82" class="st1" width="105" height="17.5"/>
<rect x="218.7" y="103.33" transform="matrix(0.8337 0.5521 -0.5521 0.8337 114.786 -102.5574)" class="st1" width="18" height="72"/>
<rect x="380.7" y="103.43" transform="matrix(-0.8294 0.5586 -0.5586 -0.8294 790.8094 37.3894)" class="st1" width="18" height="72"/>
<rect x="240.1" y="104.27" class="st1" width="137" height="17.5"/>
<path class="st1" d="M95.93,190.44c0,10.45-18.5,8.4-18.5,0c0-13.55,9.48-33.62,32.9-33.62c8.4,0,8.2,17.5,0,17.5
	C102.1,174.32,95.93,182.21,95.93,190.44z"/>
<path class="st1" d="M521.48,190.44c0,10.45,18.44,8.4,18.44,0c0-13.55-9.45-33.62-32.79-33.62c-8.38,0-8.17,17.5,0,17.5
	C515.33,174.32,521.48,182.21,521.48,190.44z"/>
<path class="st1" d="M108.44,436.67c-22.64,0-31.01-5.57-31.01-22.24c0-1.02,18.5-1.21,18.5,0c0,6.83,8.5,8.24,12.51,8.24
	C108.68,422.67,109.61,436.67,108.44,436.67z"/>
<path class="st1" d="M508.99,436.35c22.21,0,30.93-5.41,30.93-22.07c0-1.02-18.5-1.21-18.5,0c0,6.83-8.49,8.07-12.43,8.07
	C508.76,422.35,507.84,436.35,508.99,436.35z"/>
<circle class="st2" cx="308.58" cy="301" r="30"/>
<g>
	<path class="st2" d="M307.73,201.79c48.6,0,88,39.51,88,88.25"/>
	<path class="st2" d="M219.73,290.04c0-48.74,39.4-88.25,88-88.25"/>
</g>
<path d="M215.48,322.29c0,0-5.75-16.44-5.75-32.25c0-4.66,20.2-5,20,0c-0.63,15.83,5,32.4,5,32.4L215.48,322.29z"/>
<path d="M399.98,322.36c0,0,5.75-16.44,5.75-32.25c0-4.66-20.2-5-20,0c0.63,15.83-5,32.4-5,32.4L399.98,322.36z"/>
<polygon points="308.65,482.97 281.21,431.59 300.09,431.36 324.53,474.49 "/>
<polygon points="312.71,475.72 380.73,322.51 399.97,322.34 327.51,482.43 "/>
<ellipse cx="317.95" cy="477.97" rx="10.52" ry="10.65"/>
</svg>
